<svg xmlns="http://www.w3.org/2000/svg" width="301.25" height="626.25"><g id="g3659"><g id="g3661"><path d="M150.675 102.375c27.765-.08 50.16-22.476 50.1-50.1.06-27.627-22.335-50.025-50.1-50.1-27.484.075-49.882 22.473-49.8 50.1-.082 27.624 22.316 50.02 49.8 50.1" id="path3663"/><path d="M143.475 419.775v173.1c-.037 31.5-47.206 31.5-47.1 0v-171.9h-63.6l67.8-235.2h-10.5l-39.3 132.6c-9.425 28.97-49.112 17.094-39.9-13.8l43.5-144c4.787-16.467 25.554-45.576 61.5-45.6h68.7c35.737.024 56.596 29.38 62.1 45.6l43.5 143.7c8.887 31.037-30.488 43.85-39.9 13.8l-39.3-132.3h-11.4l68.1 235.2h-63.3v172.2c0 31.2-46.97 31.044-47.1 0v-173.4h-13.8" id="path3665"/></g></g></svg>