<svg xmlns="http://www.w3.org/2000/svg" width="70" height="70" viewBox="0 0 70 70"><path d="M63.68 9.583h-56c-2.21 0-5.097.25-5.097 4.346v42c0 2.208.563 3.653 4.096 3.653h57c2.208 0 2.903-1.445 2.903-3.654v-42c0-2.21-.695-4.347-2.904-4.347zm-1.097 4v5h-56v-5h56zm-56 42v-35h56v35h-56zM28.988 24.583H13.176c-2.218 0-2.593 1-2.593 3.17v21c0 1.103.488 1.83 1.593 1.83H28.99c1.103 0 1.594.273 1.594-.83v-22c0-1.106.437-3.17-1.596-3.17zm-.405 24h-16v-22h16v22zM33.417 26.583h12c.553 0 1-.447 1-1s-.447-1-1-1h-12c-.553 0-1 .447-1 1s.447 1 1 1zM58.417 24.583h-9c-.553 0-1 .447-1 1s.447 1 1 1h9c.553 0 1-.447 1-1s-.447-1-1-1zM33.417 31.583h6c.553 0 1-.447 1-1s-.447-1-1-1h-6c-.553 0-1 .447-1 1s.447 1 1 1zM14.417 17.583h1c.553 0 1-.447 1-1s-.447-1-1-1h-1c-.553 0-1 .447-1 1s.447 1 1 1zM53.417 17.583h1c.553 0 1-.447 1-1s-.447-1-1-1h-1c-.553 0-1 .447-1 1s.447 1 1 1zM50.417 29.583h-7c-.553 0-1 .447-1 1s.447 1 1 1h7c.553 0 1-.447 1-1s-.447-1-1-1zM33.417 36.583h10c.553 0 1-.447 1-1s-.447-1-1-1h-10c-.553 0-1 .447-1 1s.447 1 1 1zM46.417 35.583c0 .553.447 1 1 1h7c.553 0 1-.447 1-1s-.447-1-1-1h-7c-.553 0-1 .447-1 1zM58.417 29.583h-4c-.553 0-1 .447-1 1s.447 1 1 1h4c.553 0 1-.447 1-1s-.447-1-1-1zM33.417 44.583h8c.553 0 1-.447 1-1s-.447-1-1-1h-8c-.553 0-1 .447-1 1s.447 1 1 1zM58.417 42.583h-13c-.553 0-1 .447-1 1s.447 1 1 1h13c.553 0 1-.447 1-1s-.447-1-1-1zM48.417 47.583h-15c-.553 0-1 .447-1 1s.447 1 1 1h15c.553 0 1-.447 1-1s-.447-1-1-1zM58.417 47.583h-6c-.553 0-1 .447-1 1s.447 1 1 1h6c.553 0 1-.447 1-1s-.447-1-1-1z"/></svg>