<svg width="191.237" height="492.407" xmlns="http://www.w3.org/2000/svg"><title>Layer 1</title><g id="g1517"><g id="g1519"><path id="path1521" d="M95.872 81.67c22.55 0 40.834-18.283 40.834-40.835C136.706 18.285 118.422 0 95.872 0 73.32 0 55.038 18.284 55.038 40.835c0 22.552 18.28 40.836 40.834 40.836z"/><path id="path1523" d="M95.872 40.835"/></g><path id="path1525" d="M52.173 90.683c-28.917 0-52.173 23.584-52.173 53v125.375c0 24.375 35.673 24.375 35.673 0V154.416h8.445v313.907c0 32.59 47.503 31.63 47.503 0v-182.22h8.183v182.22c0 31.63 47.764 32.59 47.764 0V154.416h8.247v114.642c0 24.563 35.487 24.562 35.423 0V144.433c0-27.125-21.064-53.694-52.814-53.694l-86.25-.057z"/></g></svg>