<svg xmlns="http://www.w3.org/2000/svg" viewBox="0 0 574 1436"><defs><clipPath id="a"><path d="M0 1166h857V0H0v1166z"/></clipPath></defs><g><g><g clip-path="url(#a)" transform="matrix(1.25 0 0 -1.25 -496.282 1457.5)"><g><path d="M617.232 1166h23.997c7.16-2.38 14.174-5.55 19.94-10.513.622-.8 1.255-1.598 1.902-2.39-7.93 2.554-15.365 6.558-23.547 8.325-13.742 2.85-28.237-.51-40.515-6.908-.52.25-1.035.5-1.54.75 6.05 4.455 12.31 8.984 19.762 10.736z" fill="none" stroke="#010101" stroke-width=".1" stroke-miterlimit="10"/></g><g><path d="M617.232 1166h23.997c7.16-2.38 14.174-5.55 19.94-10.513.622-.8 1.255-1.598 1.902-2.39-7.93 2.554-15.365 6.558-23.547 8.325-13.742 2.85-28.237-.51-40.515-6.908-.52.25-1.035.5-1.54.75 6.05 4.455 12.31 8.984 19.762 10.736" fill="#010101"/></g><g><path d="M611.874 1150.335c6.815 2.33 14.08 1.034 21.124 1.38 10.348.852 19.755-4.443 28.52-9.232 1.983-1.147 4.006.633 5.773 1.405-1.015 2.44-2.107 4.847-3.04 7.317 3.036-1.252 3.846-4.66 5.267-7.3-5.6-7.23-14.315-10.716-22.013-15.146-5.417-2.44-10.77-5.115-16.505-6.74 5.795-7.764 11.6-15.63 15.614-24.503 3.395-7.71 7.073-15.37 9.053-23.6-5.907 7.14-9.737 15.87-16.454 22.35-1.985-1.694-4.902-3.265-5.01-6.195.157-5.184 1.715-10.19 2.906-15.203 1.985-9.067 4.57-18 6-27.185 1.98-12.155 4.757-24.293 4.71-36.664 1.438-8.582-.13-17.332 1.315-25.916.208-11.932-.014-23.873.093-35.81 4.084 3.372 7.648 7.37 10.362 11.93 8.316 13.507 13.022 28.833 17.226 44.018 6.428 25.462 10.254 51.563 11.67 77.77-.433 9.507 1.138 19.296-1.705 28.545-.848 4.495-7.452 5.287-6.97 10.386-.863 4.173 2.05 7.978 1.366 12.065-2.77 7.068-10.807 10.263-13.924 17.17 10.034-2.09 17.753-9.288 25.746-15.193 7.137-5.81 15.387-10.492 20.973-17.984 9.757-11.124 24.348-15.6 38.182-19.205 20.46-5.106 41.3-9.456 62.42-10.214 9.392-3.162 15.65-12.912 16.028-22.66 1.584-18.262 4.527-36.356 6.637-54.56.744-4.26.458-8.607.408-12.91 3.213-1.362 6.6-2.584 9.034-5.223-2.305-3.828-5.994-7.017-6.874-11.55-.528-2.958 1.886-5.08 3.837-6.872 1.662-1.296 1.99-3.43 2.593-5.32-1.997-.778-3.978-1.596-5.942-2.42 1.773-5.967 5.267-11.352 6.206-17.573 3.24-17.637 2.557-35.722 5.833-53.365 1.75-13.398 2.675-26.908 3.5-40.383.903-4.237-.01-8.647 1.167-12.842v-25.21c-1.553-8.33-2.25-16.788-3.62-25.148-7.377-5.926-13.87-13.004-22.054-17.874-5.49-3.5-10.834-7.22-16.274-10.79-13.802-9.363-28.6-17.147-42.49-26.364 1.558-4.313.487-8.97 1.333-13.413 3.018-44.135 5.86-88.264 8.972-132.396-7.127-4.182-15.634-4.635-23.67-5.268-.04-14.584-2.806-29.028-3.11-43.608-.618-12.054-3.007-23.92-3.72-35.967-.93-16.738-4.7-33.143-6.69-49.76-3.93-28.083-12.26-55.262-17.63-83.058-.917-7.062.274-14.235-.73-21.305-.66-9.227.32-18.515-.503-27.736-.906-4.946-.133-9.995-.76-14.967-1.508-10.922-2.704-22.01-1.306-33.015.35-31.045 6.242-61.79 6.734-92.832 1.327-7.368.03-14.882 1.04-22.282.613-8.275-.42-16.624.903-24.863-.626-13.948 2.928-27.563 5.468-41.166 1.888-10.808 5.97-21.53 13.2-29.917 1.606-2.472 4.807-1.457 7.264-1.625 5.09-1.248 6.04-7.216 10.36-9.518 3.488-2.197 7.056-4.282 10.35-6.792 2.728-3.11 4.412-6.94 4.3-11.152 1.385-1.135 2.75-2.312 4.112-3.51-.014-1.955-.01-3.918.02-5.9-4.79-1.91-9.563-3.862-14.352-5.77-9.824-3.917-20.677-5.285-31.142-3.775-5.438.786-11.03.47-16.365 1.82-4.736 2.768-10.446 3.668-14.727 7.2-4.55 4.682-7.28 11.32-13.274 14.476-2.287 1.468-4.897.373-7.284-.104-1.107-1.19-2.213-2.384-3.308-3.595-5.966-.066-11.696 1.808-17.24 3.802-5.816 2.43-12.216 4.488-16.513 9.342-.583 5.39-.952 10.782-.912 16.196-.887 5.488-.524 11.047-.993 16.558-1.78.31-3.55.615-5.32.854-.425 2.11-.717 4.25-1.033 6.358-.955 7.553-5.513 14.286-4.995 22.08.17 7.775 1.417 15.496 1.528 23.252-2.43 18.903-5.506 37.774-6.265 56.833.405 11.407-1.158 22.738-2.432 34.045-1.138 9.238-.652 18.606-2.398 27.763-4.78 30.844-10.336 61.558-15.623 92.316-5.688 34.08-11.984 68.085-16.355 102.366-.598-15.48-.136-30.987-.28-46.48.027-38.987-.056-77.977.04-116.964 1.034-6.978.057-14.066 1.206-21.037.39-4.355-.212-8.77.53-13.11 1.74-18.06-1.655-35.99-3.702-53.876-1.414-9.948-.844-19.996-.944-30.012.216-20.64-1.188-41.603-7.712-61.34-1.9-5.31-4.76-10.85-3.286-16.642 1.048-13.543-1.678-27.03-1.912-40.564-4.31-4.87-10.67-6.974-16.755-8.63-6.018-1.452-12.246-3.088-18.46-2.015-3.202 1.827-6.448 3.616-10.175 4.04-2.35-.605-4.836-.942-6.933-2.25-6.466-3.944-10.257-11.16-17.085-14.61-4.336-2.266-9.336-2.56-13.802-4.465-6.342-3-13.516-2.882-20.27-4.298-4.624-1.288-9.332.056-14.01.095-13.22 1.075-25.56 6.296-38.324 9.434.06 2.444.332 4.864 1.125 7.168 1.517.72 3.026 1.45 4.558 2.132.324 4.25 1.913 8.583 5.572 11.05 5.23 3.315 11.096 5.485 16.474 8.54 2.953 1.807 4.876 4.825 7.625 6.88 3.23 1.772 7.09.873 10.61 1 6.132 3.756 9.76 10.145 13.56 16.01 4 7.728 7.72 16.442 5.893 25.32-.53 8.995-1.69 17.937-2.548 26.902 1.676 1.32 5.478 1.414 5.134 4.213-.954 18-4.513 36.016-2.247 54.067.542 19.414 4.732 38.527 5.35 57.926 1.118 6.665-.083 13.45.907 20.12.844 12.38-.643 24.88.795 37.21-1.48 23.454-5.782 46.602-10.34 69.62-1.764 15.433-5.993 30.46-7.562 45.915-1.71 15.393-2.09 30.913-4.687 46.205-3.214 19.87-4.708 39.956-7.102 59.928-.87 15.08 1.782 30.02 3.32 44.965.922 5.736.452 11.603 1.715 17.285l.864 2.177c-5.53 2.533-11.61 3.69-17.2 6.105-2.263.662-4.577 2.323-6.99 1.494.842 2.286 1.114 4.707 1.438 7.098 5.44 43.93 11.086 87.83 16.573 131.755-.705 2.888-.016 6.26-1.73 8.805-3.904 3.794-8.464 6.84-12.948 9.898-7.436 5.15-13.916 11.493-20.884 17.226-4.96 3.78-8.367 9.092-12.477 13.697-6.07 7.74-12.252 15.433-17.447 23.802-3.095 5.22-6.532 10.49-7.406 16.624-1.193 5.657.156 11.368.193 17.048.707 18.075 4.942 35.798 5.9 53.857 1.293 13.795 3.494 27.488 6 41.11 2.153 11.047 4.797 22.002 6.217 33.18.332 3.88 4.086 6.38 4.16 10.303-2.332 1.022-6.133 3.07-4.447 6.155 1.998 2.28 5.187 3.193 7.648 4.946.338 1.19.69 2.377 1.055 3.56-1.41 1.774-2.918 3.577-3.584 5.78-.855 5.003 1.702 9.58 2.612 14.363 3.047 15.796 6.494 31.527 10.965 46.987 1.89 6.063 2.39 12.495 4.608 18.46 1.437 4.482 5.75 7.406 10.12 8.585 13.47 3.465 27.36 4.746 40.97 7.524 11.512 2.54 23.42 4.055 34.245 8.975 6.3 2.747 13.1 5.028 18.187 9.85 2.897 3.17 5.224 6.923 8.836 9.387 8.388 6.024 17.83 10.37 26.454 16.035-1.417-4.598-3.31-9.024-4.822-13.585-1.647-5.095-.826-10.744 1.845-15.344-.906-6.275-3.915-12.086-5.976-18.066-3.417-8.957-4.346-18.617-4.776-28.118-1.3-7.99.12-16.035.782-24.005 3.536-21.813 10.398-43.284 21.536-62.44 7.212-13.26 14.544-26.63 24.143-38.352.34.163 1.025.488 1.366.65l-1.266 1.905c.206 13.142-.142 26.292.165 39.428 1.354 7.306-.08 14.777 1.167 22.088.57 11.543.847 23.086 1.77 34.612 2.435 16.365 9.678 31.642 11.147 48.192-1.883 2.377-4.04 4.51-6.147 6.677-2.49-1.24-4.95-2.702-6.405-5.162-4.173-5.01-6.983-11.124-11.905-15.494 2.04 8.352 6.92 15.602 10.062 23.534 4 7.428 6.416 16.295 13.75 21.29-4.766 2.892-9.998 4.847-14.95 7.37-8.696 4.11-18.082 7.774-25.04 14.594-1.048 4.276 3.605 4.89 6.7 4.487-.945-.826-1.86-1.677-2.742-2.552 1.037-1.61 2.29-3.07 3.442-4.606 6.535 3.56 13.104 7.2 20.32 9.228z" fill="none" stroke="#010101" stroke-width=".1" stroke-miterlimit="10"/></g><g><path d="M611.874 1150.335c6.815 2.33 14.08 1.034 21.124 1.38 10.348.852 19.755-4.443 28.52-9.232 1.983-1.147 4.006.633 5.773 1.405-1.015 2.44-2.107 4.847-3.04 7.317 3.036-1.252 3.846-4.66 5.267-7.3-5.6-7.23-14.315-10.716-22.013-15.146-5.417-2.44-10.77-5.115-16.505-6.74 5.795-7.764 11.6-15.63 15.614-24.503 3.395-7.71 7.073-15.37 9.053-23.6-5.907 7.14-9.737 15.87-16.454 22.35-1.985-1.694-4.902-3.265-5.01-6.195.157-5.184 1.715-10.19 2.906-15.203 1.985-9.067 4.57-18 6-27.185 1.98-12.155 4.757-24.293 4.71-36.664 1.438-8.582-.13-17.332 1.315-25.916.208-11.932-.014-23.873.093-35.81 4.084 3.372 7.648 7.37 10.362 11.93 8.316 13.507 13.022 28.833 17.226 44.018 6.428 25.462 10.254 51.563 11.67 77.77-.433 9.507 1.138 19.296-1.705 28.545-.848 4.495-7.452 5.287-6.97 10.386-.863 4.173 2.05 7.978 1.366 12.065-2.77 7.068-10.807 10.263-13.924 17.17 10.034-2.09 17.753-9.288 25.746-15.193 7.137-5.81 15.387-10.492 20.973-17.984 9.757-11.124 24.348-15.6 38.182-19.205 20.46-5.106 41.3-9.456 62.42-10.214 9.392-3.162 15.65-12.912 16.028-22.66 1.584-18.262 4.527-36.356 6.637-54.56.744-4.26.458-8.607.408-12.91 3.213-1.362 6.6-2.584 9.034-5.223-2.305-3.828-5.994-7.017-6.874-11.55-.528-2.958 1.886-5.08 3.837-6.872 1.662-1.296 1.99-3.43 2.593-5.32-1.997-.778-3.978-1.596-5.942-2.42 1.773-5.967 5.267-11.352 6.206-17.573 3.24-17.637 2.557-35.722 5.833-53.365 1.75-13.398 2.675-26.908 3.5-40.383.903-4.237-.01-8.647 1.167-12.842v-25.21c-1.553-8.33-2.25-16.788-3.62-25.148-7.377-5.926-13.87-13.004-22.054-17.874-5.49-3.5-10.834-7.22-16.274-10.79-13.802-9.363-28.6-17.147-42.49-26.364 1.558-4.313.487-8.97 1.333-13.413 3.018-44.135 5.86-88.264 8.972-132.396-7.127-4.182-15.634-4.635-23.67-5.268-.04-14.584-2.806-29.028-3.11-43.608-.618-12.054-3.007-23.92-3.72-35.967-.93-16.738-4.7-33.143-6.69-49.76-3.93-28.083-12.26-55.262-17.63-83.058-.917-7.062.274-14.235-.73-21.305-.66-9.227.32-18.515-.503-27.736-.906-4.946-.133-9.995-.76-14.967-1.508-10.922-2.704-22.01-1.306-33.015.35-31.045 6.242-61.79 6.734-92.832 1.327-7.368.03-14.882 1.04-22.282.613-8.275-.42-16.624.903-24.863-.626-13.948 2.928-27.563 5.468-41.166 1.888-10.808 5.97-21.53 13.2-29.917 1.606-2.472 4.807-1.457 7.264-1.625 5.09-1.248 6.04-7.216 10.36-9.518 3.488-2.197 7.056-4.282 10.35-6.792 2.728-3.11 4.412-6.94 4.3-11.152 1.385-1.135 2.75-2.312 4.112-3.51-.014-1.955-.01-3.918.02-5.9-4.79-1.91-9.563-3.862-14.352-5.77-9.824-3.917-20.677-5.285-31.142-3.775-5.438.786-11.03.47-16.365 1.82-4.736 2.768-10.446 3.668-14.727 7.2-4.55 4.682-7.28 11.32-13.274 14.476-2.287 1.468-4.897.373-7.284-.104-1.107-1.19-2.213-2.384-3.308-3.595-5.966-.066-11.696 1.808-17.24 3.802-5.816 2.43-12.216 4.488-16.513 9.342-.583 5.39-.952 10.782-.912 16.196-.887 5.488-.524 11.047-.993 16.558-1.78.31-3.55.615-5.32.854-.425 2.11-.717 4.25-1.033 6.358-.955 7.553-5.513 14.286-4.995 22.08.17 7.775 1.417 15.496 1.528 23.252-2.43 18.903-5.506 37.774-6.265 56.833.405 11.407-1.158 22.738-2.432 34.045-1.138 9.238-.652 18.606-2.398 27.763-4.78 30.844-10.336 61.558-15.623 92.316-5.688 34.08-11.984 68.085-16.355 102.366-.598-15.48-.136-30.987-.28-46.48.027-38.987-.056-77.977.04-116.964 1.034-6.978.057-14.066 1.206-21.037.39-4.355-.212-8.77.53-13.11 1.74-18.06-1.655-35.99-3.702-53.876-1.414-9.948-.844-19.996-.944-30.012.216-20.64-1.188-41.603-7.712-61.34-1.9-5.31-4.76-10.85-3.286-16.642 1.048-13.543-1.678-27.03-1.912-40.564-4.31-4.87-10.67-6.974-16.755-8.63-6.018-1.452-12.246-3.088-18.46-2.015-3.202 1.827-6.448 3.616-10.175 4.04-2.35-.605-4.836-.942-6.933-2.25-6.466-3.944-10.257-11.16-17.085-14.61-4.336-2.266-9.336-2.56-13.802-4.465-6.342-3-13.516-2.882-20.27-4.298-4.624-1.288-9.332.056-14.01.095-13.22 1.075-25.56 6.296-38.324 9.434.06 2.444.332 4.864 1.125 7.168 1.517.72 3.026 1.45 4.558 2.132.324 4.25 1.913 8.583 5.572 11.05 5.23 3.315 11.096 5.485 16.474 8.54 2.953 1.807 4.876 4.825 7.625 6.88 3.23 1.772 7.09.873 10.61 1 6.132 3.756 9.76 10.145 13.56 16.01 4 7.728 7.72 16.442 5.893 25.32-.53 8.995-1.69 17.937-2.548 26.902 1.676 1.32 5.478 1.414 5.134 4.213-.954 18-4.513 36.016-2.247 54.067.542 19.414 4.732 38.527 5.35 57.926 1.118 6.665-.083 13.45.907 20.12.844 12.38-.643 24.88.795 37.21-1.48 23.454-5.782 46.602-10.34 69.62-1.764 15.433-5.993 30.46-7.562 45.915-1.71 15.393-2.09 30.913-4.687 46.205-3.214 19.87-4.708 39.956-7.102 59.928-.87 15.08 1.782 30.02 3.32 44.965.922 5.736.452 11.603 1.715 17.285l.864 2.177c-5.53 2.533-11.61 3.69-17.2 6.105-2.263.662-4.577 2.323-6.99 1.494.842 2.286 1.114 4.707 1.438 7.098 5.44 43.93 11.086 87.83 16.573 131.755-.705 2.888-.016 6.26-1.73 8.805-3.904 3.794-8.464 6.84-12.948 9.898-7.436 5.15-13.916 11.493-20.884 17.226-4.96 3.78-8.367 9.092-12.477 13.697-6.07 7.74-12.252 15.433-17.447 23.802-3.095 5.22-6.532 10.49-7.406 16.624-1.193 5.657.156 11.368.193 17.048.707 18.075 4.942 35.798 5.9 53.857 1.293 13.795 3.494 27.488 6 41.11 2.153 11.047 4.797 22.002 6.217 33.18.332 3.88 4.086 6.38 4.16 10.303-2.332 1.022-6.133 3.07-4.447 6.155 1.998 2.28 5.187 3.193 7.648 4.946.338 1.19.69 2.377 1.055 3.56-1.41 1.774-2.918 3.577-3.584 5.78-.855 5.003 1.702 9.58 2.612 14.363 3.047 15.796 6.494 31.527 10.965 46.987 1.89 6.063 2.39 12.495 4.608 18.46 1.437 4.482 5.75 7.406 10.12 8.585 13.47 3.465 27.36 4.746 40.97 7.524 11.512 2.54 23.42 4.055 34.245 8.975 6.3 2.747 13.1 5.028 18.187 9.85 2.897 3.17 5.224 6.923 8.836 9.387 8.388 6.024 17.83 10.37 26.454 16.035-1.417-4.598-3.31-9.024-4.822-13.585-1.647-5.095-.826-10.744 1.845-15.344-.906-6.275-3.915-12.086-5.976-18.066-3.417-8.957-4.346-18.617-4.776-28.118-1.3-7.99.12-16.035.782-24.005 3.536-21.813 10.398-43.284 21.536-62.44 7.212-13.26 14.544-26.63 24.143-38.352.34.163 1.025.488 1.366.65l-1.266 1.905c.206 13.142-.142 26.292.165 39.428 1.354 7.306-.08 14.777 1.167 22.088.57 11.543.847 23.086 1.77 34.612 2.435 16.365 9.678 31.642 11.147 48.192-1.883 2.377-4.04 4.51-6.147 6.677-2.49-1.24-4.95-2.702-6.405-5.162-4.173-5.01-6.983-11.124-11.905-15.494 2.04 8.352 6.92 15.602 10.062 23.534 4 7.428 6.416 16.295 13.75 21.29-4.766 2.892-9.998 4.847-14.95 7.37-8.696 4.11-18.082 7.774-25.04 14.594-1.048 4.276 3.605 4.89 6.7 4.487-.945-.826-1.86-1.677-2.742-2.552 1.037-1.61 2.29-3.07 3.442-4.606 6.535 3.56 13.104 7.2 20.32 9.228" fill="#010101"/></g></g></g></g></svg>