<svg xmlns="http://www.w3.org/2000/svg" width="100" height="100" viewBox="0 0 100 100"><path fill="#EDEDED" d="M50 0C22.386 0 0 22.385 0 50c0 27.614 22.386 50 50 50s50-22.386 50-50c0-27.615-22.386-50-50-50z"/><path fill="#D5D5D5" d="M78.56 27.014l1.426 1.428-37.697 33.55-4.284-4.282L78.56 27.014z"/><path fill="#BEBEBE" d="M61 77v6h-6v-6h-2v6h-6v-6h-2v6h-6v-6h-2v8h26v-8h-2z"/><path fill="#EFC75E" d="M47.03 8.094C31.83 9.138 18.74 18.444 12.29 31.528l5.423 2.656c5.767-11.646 17.67-19.813 31.333-20.166.32-.008.636 0 .954 0V8.004c-.983 0-1.97.02-2.97.09z"/><path fill="#E2574C" d="M85.985 49.988c0 5.47-1.437 10.873-3.686 15.61-.69 1.452-.173 3.182 1.234 3.976l.054.03c1.564.882 3.537.234 4.305-1.38C90.523 62.69 92 56.38 92 49.987c0-7.042-1.743-13.672-4.807-19.5l-5.326 2.794c2.624 4.993 4.118 10.674 4.118 16.706z"/><path fill="#3DB39E" d="M16.407 69.613l.054-.03c1.41-.774 1.925-2.466 1.235-3.886-2.44-5.02-3.886-11.12-3.658-17.104.21-5.493 1.686-10.68 4.13-15.293l-5.356-2.81c-2.57 4.867-4.21 10.29-4.673 16.03-.62 7.667.863 15.367 3.965 21.743.767 1.578 2.74 2.213 4.305 1.35z"/><path fill="#F4B459" d="M50 8.004v6.014c14.174 0 26.436 8.185 32.3 20.095l5.393-2.652C80.846 17.563 66.543 8.008 50 8.005z"/><path fill="#324D5B" d="M76.56 22.014l1.426 1.428-35.697 38.55-4.284-4.282L76.56 22.014z"/><path fill="#1E2D36" d="M50 45c-2.762 0-5 2.237-5 5s2.238 5 5 5 5-2.24 5-5-2.238-5-5-5z"/></svg>