<svg xmlns="http://www.w3.org/2000/svg" width="100" height="100" viewBox="0 0 100 100"><path fill="#EFC75E" d="M50 0c27.613 0 50 22.386 50 50s-22.387 50-50 50C22.386 100 0 77.614 0 50S22.386 0 50 0z"/><path fill="#E2574C" d="M23.594 32.664c9.478-9.633 18.87-5.424 26.396 1.448 7.52-6.872 16.84-11.158 26.394-1.448 7.445 7.565 7.485 19.724 0 27.25-12.557 11.48-19.12 17.474-22.552 20.6-2.146 1.96-5.395 1.965-7.55.018-3.458-3.123-10.064-9.115-22.69-20.617-7.484-7.527-7.445-19.686.002-27.25z"/><path fill="#fff" d="M15.667 73.668c3-.332 4.667-2 5-5 .333 3 2 4.668 5 5-3 .334-4.667 2-5 5-.333-2.998-2-4.666-5-5zM74 71.002c-.332 2.998-2 4.666-5 5 3 .332 4.668 2 5 4.998.334-2.998 2-4.666 5-4.998-3-.334-4.666-2.002-5-5zm-34-61c-.332 2.998-2 4.666-5 5 3 .332 4.668 2 5 4.998.334-3 2-4.667 5-5-3-.332-4.666-2-5-5z"/><path fill="#FCF4DF" d="M67 33.003c5.4-.6 8.4-3.603 9-9 .602 5.398 3.602 8.4 9.002 9-5.4.6-8.4 3.6-9 9-.602-5.4-3.602-8.4-9.002-9z"/><path fill="#E66E65" d="M25 45.688c0-6.444 5.242-11.686 11.686-11.686.727 0 1.313.588 1.313 1.313s-.59 1.313-1.314 1.313c-4.994 0-9.058 4.064-9.058 9.06 0 .726-.588 1.313-1.313 1.313S25 46.414 25 45.69z"/><path fill="#CB4E44" d="M48.453 78.61c-3.457-3.124-10.062-9.116-22.688-20.618l-.054-.06-1.118-1.02c-4.93-4.958-6.574-11.92-5.01-18.26-3.022 7.047-1.714 15.504 4.01 21.26 12.625 11.504 19.23 17.495 22.69 20.618 2.155 1.947 5.403 1.94 7.55-.017l1.802-1.644c-2.137 1.652-5.142 1.58-7.18-.26z"/><path fill="#F9DDDB" d="M78.783 35.637c-.69-1.048-1.487-2.046-2.4-2.973-.978-.996-1.955-1.836-2.928-2.55-1.51 1.604-3.652 2.578-6.455 2.89 5.4.6 8.4 3.6 9 9 .307-2.745 1.238-4.863 2.783-6.367z"/></svg>