<svg xmlns="http://www.w3.org/2000/svg" width="136.913" height="136.914" viewBox="0 0 136.913 136.914"><circle fill="#E23942" cx="68.456" cy="68.458" r="63.333"/><path fill="#6B4E15" d="M72.666 77.51c0 2.28-1.848 4.13-4.13 4.13-2.278 0-4.126-1.85-4.126-4.13V41.588c0-2.28 1.848-2.322 4.127-2.322 2.28 0 4.13.043 4.13 2.322V77.51zM102.22 77.51c0 2.28-1.847 4.13-4.128 4.13-2.28 0-4.13-1.85-4.13-4.13V41.588c0-2.28 1.85-2.322 4.13-2.322s4.13.043 4.13 2.322V77.51zM81.896 50.155v14.658L53.322 50.155v14.64l-28.537-14.64v46.29c0 1.624 1.193 2.94 2.664 2.94h80.43c1.472 0 2.665-1.316 2.665-2.94V64.852l-28.65-14.695z"/><path fill="#D2D2D2" d="M81.896 54.196v14.658L53.322 54.196v14.64l-28.537-14.64v46.29c0 1.624 1.193 2.94 2.664 2.94h80.43c1.472 0 2.665-1.316 2.665-2.94V68.893l-28.65-14.696z"/><path fill="#fff" d="M44.883 89.604c0 .605-.443 1.098-.992 1.098h-9.116c-.55 0-.994-.492-.994-1.098V79.552c0-.605.445-1.098.994-1.098h9.117c.55 0 .993.492.993 1.098v10.052zM74.09 89.604c0 .605-.447 1.098-.996 1.098h-9.117c-.55 0-.992-.492-.992-1.098V79.552c0-.605.443-1.098.992-1.098h9.117c.55 0 .996.492.996 1.098v10.052zM102.105 89.604c0 .605-.44 1.098-.992 1.098h-9.115c-.55 0-.994-.492-.994-1.098V79.552c0-.605.445-1.098.994-1.098h9.115c.55 0 .992.492.992 1.098v10.052z"/><g opacity=".7"><ellipse fill="#fff" cx="98.696" cy="31.831" rx="2.659" ry="2.484"/><ellipse fill="#fff" cx="96.402" cy="29.3" rx="2.658" ry="2.482"/><ellipse fill="#fff" cx="99.499" cy="30.292" rx="2.659" ry="2.484"/><ellipse fill="#fff" cx="97.83" cy="35.554" rx="2.658" ry="2.482"/><ellipse fill="#fff" cx="96.424" cy="33.021" rx="2.658" ry="2.484"/><ellipse fill="#fff" cx="96.997" cy="26.591" rx="2.659" ry="2.484"/><ellipse fill="#fff" cx="99.499" cy="27.81" rx="2.659" ry="2.482"/></g><g opacity=".7"><ellipse fill="#fff" cx="69.84" cy="28.095" rx="4.057" ry="3.791"/><ellipse fill="#fff" cx="66.342" cy="24.231" rx="4.057" ry="3.789"/><ellipse fill="#fff" cx="71.066" cy="25.747" rx="4.057" ry="3.791"/><path fill="#fff" d="M72.576 33.774c0 2.094-1.813 3.79-4.057 3.79-2.24 0-4.058-1.696-4.058-3.79s1.818-3.79 4.057-3.79c2.244 0 4.056 1.697 4.056 3.79zM70.428 29.91c0 2.093-1.814 3.79-4.053 3.79-2.246 0-4.057-1.697-4.057-3.79 0-2.094 1.81-3.79 4.057-3.79 2.238 0 4.053 1.696 4.053 3.79z"/><ellipse fill="#fff" cx="67.248" cy="20.099" rx="4.057" ry="3.791"/><ellipse fill="#fff" cx="71.066" cy="21.956" rx="4.057" ry="3.791"/></g></svg>