<svg xmlns="http://www.w3.org/2000/svg" width="136.913" height="136.914" viewBox="0 0 136.913 136.914"><circle fill="#65A844" cx="68.457" cy="68.457" r="63.333"/><g id="t"><path fill="#D32027" d="M117.905 92.028c0 2.384-3.027 5.607-5.41 5.607h-87.89c-2.384 0-4.315-1.93-4.315-4.314V47.49c0-2.383 1.932-4.314 4.314-4.314h87.89c2.384 0 4.315 1.93 4.315 4.313 0 0 3.243 19.234 3.243 36.625-.78 6.644-2.148 7.913-2.148 7.913z"/><path fill="#357180" d="M118.296 91.508c0 2.383-1.916 6.128-4.3 6.128H24.605c-2.383 0-4.314-1.93-4.314-4.314h95.66l2.346-1.814z"/><circle fill="#202121" cx="37.186" cy="97.276" r="6.651"/><circle fill="#5E5F5E" cx="37.186" cy="97.276" r="3.056"/><path fill="#D7C6CB" d="M37.626 60.61H26.208c-1.7 0-3.082-1.38-3.082-3.08v-8.218c0-1.7 1.38-3.08 3.082-3.08h11.418V60.61zM75.347 46.233h13.967V60.61H75.347zM58.21 46.233h13.967V60.61H58.21zM40.954 46.233h13.97V60.61h-13.97zM37.626 81.46H26.208c-1.7 0-3.082-1.38-3.082-3.08v-4.143c0-1.7 1.38-3.08 3.082-3.08h11.418V81.46zM75.493 71.157H86.91c1.702 0 3.08 1.38 3.08 3.08v4.143c0 1.7-1.378 3.08-3.08 3.08H75.494V71.157zM40.954 71.157h13.97V81.46h-13.97zM58.21 71.157h13.967V81.46H58.21zM113 57.53c0 1.7-1.382 3.08-3.083 3.08H92.51V46.233h17.407c1.7 0 3.082 1.38 3.082 3.08v8.217z"/><circle fill="#202121" cx="83.2" cy="97.276" r="6.65"/><circle fill="#5E5F5E" cx="83.2" cy="97.276" r="3.055"/><path fill="#D7C6CB" d="M113 97.636H93.59v-23.52c0-1.7 1.282-3.08 2.866-3.08h13.674c1.584 0 2.87 1.38 2.87 3.08v23.52z"/><path fill="#D32027" d="M102.794 71.056h.52V97.63h-.52z"/><path fill="#D7C6CB" d="M119.99 79.393c0 .26-1.694.033-2.77-1.628-1.075-1.66-.423-31.068-.423-31.068s3.192 20.708 3.192 32.696z"/></g></svg>