<svg xmlns="http://www.w3.org/2000/svg" width="136.914" height="136.914" viewBox="0 0 136.914 136.914"><circle fill="#EDC92C" cx="68.456" cy="68.456" r="63.333"/><path fill="#E84849" d="M68.457 5.123c-34.98 0-63.334 28.354-63.334 63.333 0 29.07 19.594 53.55 46.29 60.995 9.815-3.1 18.338-8.79 18.16-20.853-.126-8.35-.333-30.78-.335-31.006l2-.02c.002.228.207 22.653.334 30.995.178 11.996-7.52 18.217-16.695 21.746 4.377.958 8.916 1.478 13.58 1.478 34.977 0 63.332-28.354 63.332-63.333 0-34.978-28.356-63.332-63.333-63.332z"/><path fill="#357180" d="M71.572 108.568c-.127-8.342-.332-30.77-.334-30.994l-2 .018c.002.227.21 22.658.334 31.006.18 12.063-8.344 17.752-18.158 20.854 1.143.318 2.295.61 3.463.863 9.176-3.53 16.873-9.75 16.695-21.747z"/><path fill="#A2D4DE" d="M45.572 74.583c0-22.092 3.5-50.002 24.332-50.002 20.834 0 24.334 27.91 24.334 50.003 0 22.092-10.895 19-24.334 19-13.437 0-24.332 3.092-24.332-19z"/><path fill="#67B8CB" d="M45.572 73.583h48.666c0 22.092-10.895 29-24.334 29-13.437 0-24.332-6.908-24.332-29z"/><path fill="#357180" d="M69.57 97.667h.668v4.916h-.668zM65.904 85.292c0-7.663.5-13.875 3.917-13.875 4.25 0 3.917 6.212 3.917 13.875 0 7.662.082 12.875-3.916 12.875-3.582 0-3.916-5.21-3.916-12.875z"/><path fill="#1A3940" d="M67.072 85.042c0-3.093.248-5.6 2.75-5.6 2.916 0 2.75 2.507 2.75 5.6 0 3.092.166 5.598-2.75 5.598-2.668 0-2.75-2.506-2.75-5.598z"/></svg>