<svg xmlns="http://www.w3.org/2000/svg" width="136.913" height="136.914" viewBox="0 0 136.913 136.914"><circle fill="#49A0AE" cx="68.456" cy="68.457" r="63.333"/><g id="svg__timeline1"><path fill="#F7F2F3" d="M102.107 79.188c0 3.232-6.768 5.853-9.998 5.853l-20.487-.09V53.978c0-3.232 2.33-5.778 6.34-5.854 4.012-.075 9.686 3.59 12.512 6.175 7.834 7.167 11.632 24.888 11.632 24.888z"/><path fill="#9DDAEC" d="M93.89 64.717l-18.25.047V54.426c0-2.637 1.6-3.73 3.634-3.345 2.035.387 6.852 2.82 9.2 5.303 4.335 4.584 5.417 8.334 5.417 8.334z"/><path fill="#F7F2F3" d="M75.738 86.327H28.223c-4.293 0-4.965-3.482-4.965-7.775V48.878c0-4.295 3.482-5.718 7.775-5.718h36.93c4.295 0 7.775 1.423 7.775 5.718v37.45z"/><path fill="#EDC92C" d="M67.975 43.103h-4V39.77c0-1.105.895-2.002 2-2.002 1.104 0 2 .896 2 2.002v3.333z"/><path fill="#F37C2A" d="M66.037 43.103h-2.063V39.77c0-1.105.895-2.002 2-2.002l.063 5.335z"/><path fill="#F7F2F3" d="M116.514 81.755c0 2.524-2.047 4.572-4.572 4.572H85.457c-2.525 0-4.572-2.048-4.572-4.572V69.51c0-2.524 2.047-4.572 4.572-4.572l26.484 2.978c2.526 0 4.573 2.05 4.573 4.572v9.267z"/><path fill="#EFECEC" d="M116.473 84.138c0 1.333-1.082 2.414-2.414 2.414H26.056c-1.332 0-2.412-1.08-2.412-2.414v-1.34c0-1.33 92.828-1.33 92.828 0v1.34z"/><circle fill="#202121" cx="45.28" cy="85.768" r="8.071"/><circle fill="#5E5F5E" cx="45.281" cy="85.768" r="4.803"/><circle fill="#A19F9F" cx="45.28" cy="85.768" r="1.796"/><circle fill="#202121" cx="101.659" cy="85.768" r="8.071"/><circle fill="#5E5F5E" cx="101.66" cy="85.768" r="4.803"/><circle fill="#A19F9F" cx="101.659" cy="85.768" r="1.796"/><path fill="#D62127" d="M23.086 73.582h93.47v2.7h-93.47zM41.637 50.43h-.793c-.666 0-1.906 0-1.906 1.42v15.734c0 1.42 1.24 1.42 1.906 1.42h.795c.443 0 .87-.014 1.225-.187.313-.15.684-.488.684-1.232V51.85c0-1.42-1.29-1.42-1.91-1.42zM49.746 55.967l-.178-.354-.174-.36c-.295-.596-.844-1.708-2.115-1.08l-14.116 6.954c-1.273.63-.725 1.742-.432 2.34l.178.355.174.357c.195.395.398.77.71 1.014.274.214.74.398 1.41.07l14.112-6.958c1.274-.628.704-1.785.43-2.34zM49.367 64.233l.176-.355.18-.354c.3-.597.854-1.705-.416-2.342l-14.067-7.05c-1.27-.638-1.826.473-2.125 1.066l-.178.358-.178.353c-.198.395-.378.784-.382 1.18-.004.347.13.83.795 1.163l14.068 7.05c1.272.637 1.85-.517 2.127-1.07z"/></g></svg>