<svg xmlns="http://www.w3.org/2000/svg" width="136.914" height="136.913" viewBox="0 0 136.914 136.913"><circle fill="#357180" cx="68.457" cy="68.455" r="63.333"/><g id="svg__timeline6"><path fill="#E84849" d="M106.958 80.78c0 3.313-6.936 6-10.25 6l-21-.093v-31.75c0-3.314 3.188-6 6.5-6h14.5c3.314 0 6 2.686 6 6l4.25 25.842z"/><path fill="#9DDAEC" d="M100.208 65.842l-20.043-.07V55.688c0-2.572.973-3.262 3.543-3.262h11.75c2.572 0 3.25 1.012 3.453 3.262l1.298 10.154z"/><path fill="#D5D6D5" d="M76.458 86.78H33.014c-4.173 0-7.556-3.384-7.556-7.556V48.492c0-4.172 3.383-5.555 7.556-5.555h35.89c4.17 0 7.554 1.383 7.554 5.555V86.78z"/><path fill="#CECBCB" d="M76.458 86.78H33.014c-4.173 0-7.556-3.384-7.556-7.556v-28.87c0-4.172 51-4.172 51 0V86.78z"/><path fill="#E84849" d="M111.458 82.336c0 2.453-1.99 4.443-4.443 4.443H85.903c-2.455 0-4.445-1.99-4.445-4.444V70.438c0-2.453 1.99-4.443 4.445-4.443h21.11c2.454 0 4.444 1.99 4.444 4.443v11.898z"/><path fill="#CECBCB" d="M115.458 85.936c0 1.295-1.05 2.344-2.344 2.344h-87.31c-1.296 0-2.346-1.05-2.346-2.344v-2.96c0-1.294 1.05-2.345 2.345-2.345h87.31c1.296 0 2.345 1.052 2.345 2.347v2.96z"/><path fill="#E84849" d="M104.47 85.936c0 1.295-1.052 2.344-2.347 2.344h-76.32c-1.295 0-2.345-1.05-2.345-2.344v-3.44c0-1.294 1.05-2.343 2.345-2.343h76.32c1.296 0 2.347 1.05 2.347 2.344v3.44z"/><circle fill="#202121" cx="93.859" cy="91.236" r="9.845"/><circle fill="#5E5F5E" cx="93.859" cy="91.236" r="5.856"/><circle fill="#A19F9F" cx="93.86" cy="91.234" r="2.189"/><circle fill="#202121" cx="46.859" cy="91.236" r="9.845"/><path fill="#5E5F5E" d="M52.715 91.236c0 3.232-2.62 5.854-5.855 5.854s-5.857-2.62-5.857-5.854c0-3.236 2.623-5.857 5.857-5.857s5.855 2.62 5.855 5.856z"/><circle fill="#A19F9F" cx="46.86" cy="91.234" r="2.189"/><path fill="#E13B3B" d="M93.708 84.19c3.385 0 7.44 1.99 9.21 4.913l5.515-.002c-1.838-6.73-7.73-11.66-14.725-11.66S80.82 82.37 78.983 89.1l5.512.003c1.77-2.923 5.826-4.912 9.213-4.912zM47.042 84.19c3.385 0 7.14 1.99 8.84 4.91h5.885c-1.838-6.73-7.73-11.66-14.725-11.66S34.155 82.37 32.317 89.1l5.885.003c1.697-2.923 5.453-4.912 8.84-4.912z"/></g></svg>