<svg xmlns="http://www.w3.org/2000/svg" width="136.913" height="136.913" viewBox="0 0 136.913 136.913"><circle fill="#344E5D" cx="68.457" cy="68.457" r="63.333"/><g id="timeline_bus"><path fill="#5AABB9" d="M50.218 50.498c0 1.708-1.385 3.092-3.092 3.092h-8.6c-1.707 0-3.09-1.384-3.09-3.092 0-1.706 1.383-3.09 3.09-3.09h8.6c1.707 0 3.092 1.384 3.092 3.09zM87.306 50.498c0 1.708-1.385 3.092-3.092 3.092h-8.6c-1.707 0-3.092-1.384-3.092-3.092 0-1.706 1.385-3.09 3.092-3.09h8.6c1.707 0 3.092 1.384 3.092 3.09z"/><path fill="#67B8CB" d="M117.14 82.614c0 1.64-2.082 3.856-3.72 3.856H21.264c-1.64 0-2.967-1.328-2.967-2.967v-31.52c0-1.637 1.328-2.965 2.967-2.965h92.154c1.638 0 2.966 1.328 2.966 2.965 0 0 2.232 13.23 2.232 25.188-.537 4.57-1.478 5.444-1.478 5.444z"/><path fill="#357180" d="M117.41 82.255c0 1.64-1.32 4.215-2.958 4.215H21.265c-1.64 0-2.967-1.328-2.967-2.967h97.498l1.613-1.248z"/><circle fill="#202121" cx="52.182" cy="86.223" r="5.292"/><circle fill="#5E5F5E" cx="52.182" cy="86.223" r="2.431"/><circle fill="#202121" cx="28.485" cy="86.223" r="5.291"/><circle fill="#5E5F5E" cx="28.485" cy="86.223" r="2.432"/><circle fill="#202121" cx="86.105" cy="86.223" r="5.29"/><circle fill="#5E5F5E" cx="86.105" cy="86.223" r="2.431"/><path fill="#357180" d="M113.323 86.47h-20.7V61.39c0-1.813 1.37-3.284 3.06-3.284h14.582c1.688 0 3.06 1.47 3.06 3.284v25.08z"/><path fill="#CDEAEA" d="M112.517 85.21H93.43V62.758c0-1.625 1.263-2.942 2.82-2.942h13.446c1.557 0 2.82 1.317 2.82 2.942V85.21z"/><path fill="#357180" d="M102.44 58.125h.557v28.34h-.557z"/><path fill="#CDEAEA" d="M69.165 59.622c0-1.007.816-1.824 1.824-1.824h13.413c1.008 0 1.824.817 1.824 1.824v13.416c0 1.008-.816 1.824-1.824 1.824H70.99c-1.01 0-1.825-.816-1.825-1.824V59.622z"/><path fill="#357180" d="M84.403 75.13H70.99c-1.155 0-2.095-.938-2.095-2.093V59.622c0-1.152.94-2.092 2.094-2.092h13.413c1.154 0 2.094.94 2.094 2.092v13.416c0 1.154-.94 2.092-2.094 2.092zM70.99 58.067c-.86 0-1.558.697-1.558 1.555v13.416c0 .857.697 1.555 1.557 1.555h13.413c.857 0 1.555-.697 1.555-1.555V59.622c0-.857-.697-1.555-1.555-1.555H70.99z"/><path fill="#CDEAEA" d="M46.41 59.622c0-1.007.817-1.824 1.823-1.824H61.65c1.007 0 1.823.817 1.823 1.824v13.416c0 1.008-.816 1.824-1.824 1.824H48.232c-1.006 0-1.824-.816-1.824-1.824V59.622z"/><path fill="#357180" d="M61.65 75.13H48.232c-1.152 0-2.092-.938-2.092-2.093V59.622c0-1.152.94-2.092 2.093-2.092H61.65c1.153 0 2.093.94 2.093 2.092v13.416c0 1.154-.94 2.092-2.094 2.092zM48.232 58.067c-.857 0-1.555.697-1.555 1.555v13.416c0 .857.697 1.555 1.555 1.555H61.65c.856 0 1.554-.697 1.554-1.555V59.622c0-.857-.697-1.555-1.555-1.555H48.232z"/><path fill="#CDEAEA" d="M23.655 59.622c0-1.007.816-1.824 1.824-1.824h13.415c1.008 0 1.824.817 1.824 1.824v13.416c0 1.008-.817 1.824-1.825 1.824H25.48c-1.01 0-1.825-.816-1.825-1.824V59.622z"/><path fill="#357180" d="M38.896 75.13H25.48c-1.155 0-2.095-.938-2.095-2.093V59.622c0-1.152.94-2.092 2.094-2.092h13.415c1.154 0 2.092.94 2.092 2.092v13.416c0 1.154-.937 2.092-2.09 2.092zM25.48 58.067c-.858 0-1.556.697-1.556 1.555v13.416c0 .857.697 1.555 1.555 1.555h13.415c.857 0 1.555-.697 1.555-1.555V59.622c0-.857-.697-1.555-1.555-1.555H25.48zM118.548 75.358c0 .192-1.46.154-2.508-1.068-.578-.675-.36-14.198-.113-20.096.066-1.613.46-2.21.46-2.21s2.16 14.557 2.16 23.374z"/><path fill="#CDEAEA" d="M118.573 73.924c0 .18-1.164.022-1.904-1.12-.74-1.142-.292-21.365-.292-21.365s2.195 14.24 2.195 22.484z"/></g></svg>