<svg xmlns="http://www.w3.org/2000/svg" width="136.914" height="133.111" viewBox="0 0 136.914 133.111"><circle fill="#FFD113" cx="68.457" cy="66.557" r="63.333"/><g id="timeline__bicycle"><path fill="#626463" d="M39.454 57.31c-11.58 0-20.968 9.386-20.968 20.967 0 11.58 9.388 20.968 20.968 20.968s20.968-9.39 20.968-20.968c0-11.582-9.388-20.968-20.968-20.968zm0 39.727c-10.36 0-18.76-8.4-18.76-18.76 0-10.363 8.398-18.762 18.76-18.762s18.76 8.398 18.76 18.76c0 10.362-8.4 18.762-18.76 18.762zM39.454 75.946c-1.287 0-2.33 1.043-2.33 2.33 0 1.286 1.043 2.33 2.33 2.33s2.33-1.044 2.33-2.33c0-1.287-1.043-2.33-2.33-2.33zM39.086 58.78h.736v39.237h-.736zM19.835 78.032h39.237v.735H19.835zM25.84 64.266L53.587 92.01l-.52.52L25.32 64.786zM53.096 64.294l.52.52L25.82 92.51l-.52-.523zM46.66 60.15l.68.282-15.09 36.22-.68-.284zM21.49 70.51l36.216 15.094-.283.68L21.207 71.19zM32.33 60.117L47.266 96.4l-.68.28L31.65 60.397zM57.447 70.574l.28.68L21.46 86.23l-.28-.68zM100.52 57.31c-11.58 0-20.97 9.386-20.97 20.967 0 11.58 9.39 20.968 20.97 20.968s20.967-9.39 20.967-20.968c0-11.582-9.388-20.968-20.968-20.968zm0 39.727c-10.362 0-18.762-8.4-18.762-18.76 0-10.363 8.4-18.762 18.76-18.762s18.762 8.398 18.762 18.76c0 10.362-8.4 18.762-18.76 18.762zM100.52 75.946c-1.288 0-2.33 1.043-2.33 2.33 0 1.286 1.042 2.33 2.33 2.33s2.33-1.044 2.33-2.33c0-1.287-1.044-2.33-2.33-2.33zM100.15 58.78h.736v39.237h-.736zM80.9 78.032h39.236v.735H80.9zM86.904 64.266l27.744 27.744-.52.52-27.744-27.744zM114.137 64.28l.52.522-27.77 27.717-.522-.522zM107.727 60.148l.68.283-15.09 36.22-.68-.283zM82.552 70.507L118.77 85.6l-.284.68L82.27 71.187zM93.39 60.123l14.934 36.287-.68.28-14.933-36.287zM118.512 70.574l.28.68L82.526 86.23l-.28-.68z"/><path fill="#357180" d="M100.518 78.644c-.49 0-.938-.328-1.066-.824L88.17 34.657c-.154-.59.2-1.192.79-1.346.586-.154 1.19.2 1.346.79l11.28 43.16c.154.59-.2 1.193-.79 1.348-.092.025-.186.036-.278.036zM63.854 79.257c-.49 0-.935-.326-1.066-.82l-10.79-40.71c-.156-.59.194-1.193.784-1.35.59-.155 1.193.195 1.35.784l10.79 40.71c.156.59-.194 1.193-.784 1.35-.095.025-.19.037-.284.037zM55.026 44.68c-.592 0-1.08-.47-1.103-1.064-.02-.61.454-1.12 1.063-1.143l36.05-1.288c.604-.042 1.12.454 1.143 1.063.02.61-.455 1.12-1.064 1.143l-36.05 1.288h-.04zM36.88 78.52c-.178 0-.357-.042-.524-.132-.536-.29-.737-.958-.447-1.495l17.9-33.23c.29-.535.96-.735 1.495-.446s.737.958.448 1.495L37.85 77.942c-.2.37-.58.58-.97.58zM37.515 77.77c-.275 0-.54-.154-.666-.42L26.403 55.417c-.174-.366-.02-.806.35-.98.367-.175.805-.02.98.35l10.443 21.932c.175.365.02.805-.348.98-.102.046-.21.07-.315.07zM70.23 79.502c-.373 0-.75-.113-1.075-.348-.823-.595-1.01-1.744-.415-2.568l22.397-31.11c.595-.823 2.76 2.52 2.167 3.345L71.724 78.74c-.36.498-.923.764-1.495.764z"/><path fill="#626463" d="M58.663 71.81c-10.095 0-23.01 2.92-23.01 6.52 0 3.602 12.915 6.52 23.01 6.52 10.096 0 13.548-2.918 13.548-6.52 0-3.6-3.45-6.52-13.547-6.52zM56.974 33.903c-.622-.207-1.348-.354-2.14-.437-.89-.117-1.782-.154-2.628-.068-.297.03-.576.077-.846.134-3.713.485-6.52 2.17-6.35 3.868.176 1.726 3.36 2.82 7.176 2.5.73.004 1.504-.033 2.306-.114 4.093-.415 7.302-1.817 7.17-3.13-.083-.82-2.15-2.047-4.688-2.753z"/><circle fill="#818282" cx="65.817" cy="78.154" r="3.556"/><circle fill="#818282" cx="65.817" cy="78.154" r="1.716"/><path fill="#4B4A4B" d="M65.817 80.238c-1.15 0-2.085-.935-2.085-2.084 0-1.15.936-2.085 2.085-2.085s2.084.934 2.084 2.084-.933 2.084-2.083 2.084zm0-3.432c-.744 0-1.35.604-1.35 1.35 0 .742.605 1.348 1.35 1.348.743 0 1.35-.605 1.35-1.35 0-.744-.606-1.348-1.35-1.348z"/><path fill="#818282" d="M69.678 86.832c.225.638.103 1.262-.27 1.393-.375.13-.86-.28-1.084-.92l-2.92-8.33c-.225-.64-.103-1.264.27-1.394.375-.13.86.28 1.084.92l2.92 8.332z"/><ellipse fill="#626463" cx="69.036" cy="88.023" rx="3.157" ry="1.227"/><path fill="#357180" d="M49.448 54.642c0 .77-.453 1.39-1.012 1.39H27.1c-.558 0-1.01-.62-1.01-1.39 0-.77.452-1.392 1.01-1.392h21.337c.558 0 1.01.622 1.01 1.392zM102.948 35.745c-.247.507-.943.676-1.554.377l-17.79-8.7c-.612-.3-.906-.952-.658-1.458.248-.507.944-.675 1.554-.377l17.792 8.7c.61.3.904.952.656 1.458z"/><path fill="#626463" d="M85.15 26.644c.045.715-.076 1.304-.266 1.315l-5.538.328c-.19.01-.38-.56-.42-1.274-.044-.716.076-1.304.266-1.315l5.54-.33c.188-.013.377.56.42 1.274zM101.17 34.376c.662-.272 1.26-.35 1.33-.175l2.113 5.132c.072.176-.407.54-1.067.812-.664.274-1.26.35-1.332.176l-2.11-5.132c-.074-.174.404-.54 1.067-.812z"/><path fill="#357180" d="M93.27 30.557c.383.414.573.86.425.997l-4.314 3.983c-.146.138-.576-.088-.96-.503-.383-.414-.573-.86-.424-.997l4.314-3.983c.146-.137.578.09.96.503zM98.556 48.568h-.84c-1.975 0-3.574 1.6-3.574 3.572 0 1.975 1.6 3.573 3.573 3.573h.84c1.974 0 1.974-7.145 0-7.145z"/></g></svg>