<?xml version="1.0" encoding="UTF-8" standalone="no"?>
<!-- Created with Inkscape (http://www.inkscape.org/) -->

<svg
   xmlns:dc="http://purl.org/dc/elements/1.1/"
   xmlns:cc="http://creativecommons.org/ns#"
   xmlns:rdf="http://www.w3.org/1999/02/22-rdf-syntax-ns#"
   xmlns:svg="http://www.w3.org/2000/svg"
   xmlns="http://www.w3.org/2000/svg"
   xmlns:sodipodi="http://sodipodi.sourceforge.net/DTD/sodipodi-0.dtd"
   xmlns:inkscape="http://www.inkscape.org/namespaces/inkscape"
   id="svg3651"
   version="1.1"
   inkscape:version="0.48.1 "
   width="301.25"
   height="626.25"
   xml:space="preserve"
   sodipodi:docname="toiletswomen.pdf"><metadata
     id="metadata3657"><rdf:RDF><cc:Work
         rdf:about=""><dc:format>image/svg+xml</dc:format><dc:type
           rdf:resource="http://purl.org/dc/dcmitype/StillImage" /><dc:title></dc:title></cc:Work></rdf:RDF></metadata><defs
     id="defs3655" /><sodipodi:namedview
     pagecolor="#ffffff"
     bordercolor="#666666"
     borderopacity="1"
     objecttolerance="10"
     gridtolerance="10"
     guidetolerance="10"
     inkscape:pageopacity="0"
     inkscape:pageshadow="2"
     inkscape:window-width="640"
     inkscape:window-height="480"
     id="namedview3653"
     showgrid="false"
     inkscape:zoom="0.46467066"
     inkscape:cx="150.625"
     inkscape:cy="313.125"
     inkscape:window-x="581"
     inkscape:window-y="79"
     inkscape:window-maximized="0"
     inkscape:current-layer="g3659" /><g
     id="g3659"
     inkscape:groupmode="layer"
     inkscape:label="toiletswomen"
     transform="matrix(1.25,0,0,-1.25,0,626.25)"><g
       id="g3661"
       transform="scale(0.24,0.24)"><path
         d="m 502.25,1746.25 c 92.551,0.27 167.203,74.92 167,167 0.203,92.09 -74.449,166.75 -167,167 -91.613,-0.25 -166.273,-74.91 -166,-167 -0.273,-92.08 74.387,-166.73 166,-167"
         style="fill:#000000;fill-opacity:1;fill-rule:nonzero;stroke:none"
         id="path3663" /><path
         d="m 478.25,688.25 0,-577 c -0.125,-105 -157.352,-105 -157,0 l 0,573 -212,0 226,784 -35,0 -131,-442 c -31.418,-96.562 -163.70703,-56.98 -133,46 l 145,480 c 15.957,54.89 85.18,151.92 205,152 l 110,0 119,0 c 119.125,-0.08 188.652,-97.93 207,-152 l 145,-479 c 29.625,-103.457 -101.625,-146.168 -133,-46 l -131,441 -38,0 227,-784 -211,0 0,-574 c 0,-104 -156.57,-103.48047 -157,0 l 0,578 -46,0"
         style="fill:#000000;fill-opacity:1;fill-rule:nonzero;stroke:none"
         id="path3665" /></g></g></svg>