<?xml version="1.0"?><svg width="191.237" height="492.407" xmlns="http://www.w3.org/2000/svg">

 <g>
  <title>Layer 1</title>
  <g id="g1517">
   <g id="g1519">
    <path id="path1521" d="m95.872002,81.670998c22.549995,0 40.833992,-18.283997 40.833992,-40.835999c0,-22.550999 -18.283997,-40.834999 -40.833992,-40.834999c-22.553001,0 -40.834003,18.284 -40.834003,40.834999c0,22.552002 18.281002,40.835999 40.834003,40.835999z"/>
    <path id="path1523" d="m95.872002,40.834999"/>
   </g>
   <path id="path1525" d="m52.173,90.682999c-28.917,0 -52.173,23.584 -52.173,53l0,125.375015c0,24.375 35.673,24.375 35.673,0l0,-114.642014l8.445,0l0,313.906998c0,32.589996 47.503002,31.631012 47.503002,0l0,-182.218994l8.181999,0l0,182.218994c0,31.631012 47.764,32.589996 47.764,0l0,-313.906998l8.246994,0l0,114.642014c0,24.562988 35.487,24.561981 35.423004,0l0,-124.625015c0,-27.125 -21.063995,-53.694 -52.813995,-53.694l-86.250004,-0.056z"/>
  </g>
 </g>
</svg>